<?xml version="1.0" encoding="UTF-8"?>
<svg xmlns="http://www.w3.org/2000/svg" xmlns:xlink="http://www.w3.org/1999/xlink" width="69pt" height="36pt" viewBox="0 0 69 36" version="1.1">
<g id="surface1">
<path style=" stroke:none;fill-rule:nonzero;fill:rgb(100%,100%,100%);fill-opacity:1;" d="M 10.050781 0.417969 C 9.820312 0.648438 9.660156 0.90625 9.660156 0.972656 C 9.660156 1.066406 9.222656 1.878906 8.671875 2.828125 C 8.117188 3.757812 7.613281 4.6875 7.519531 4.871094 C 7.429688 5.058594 7.128906 5.589844 6.878906 6.03125 C 6.601562 6.472656 6.140625 7.351562 5.820312 8.003906 C 5.496094 8.628906 5.152344 9.347656 5.035156 9.558594 C 4.921875 9.789062 4.828125 10.089844 4.828125 10.230469 C 4.828125 10.367188 4.691406 10.808594 4.53125 11.203125 C 4.230469 11.898438 4.070312 12.433594 3.128906 15.65625 C 1.816406 20.226562 0.644531 27.742188 0.597656 31.941406 C 0.574219 34.445312 0.507812 35.164062 0.300781 35.09375 C 0.136719 35.027344 0 35.09375 0 35.257812 C 0 35.722656 3.609375 35.421875 4.578125 34.886719 C 6.855469 33.632812 8.304688 31.871094 9.085938 29.527344 L 9.316406 28.785156 L 34.546875 28.691406 L 59.777344 28.625 L 59.914062 29.226562 C 60.097656 29.992188 61.019531 31.777344 61.226562 31.777344 C 61.339844 31.777344 61.410156 31.871094 61.410156 32.011719 C 61.410156 32.265625 62.8125 33.726562 63.273438 33.957031 C 63.457031 34.027344 64.054688 34.375 64.628906 34.699219 C 65.847656 35.398438 68.585938 35.746094 68.886719 35.257812 C 68.976562 35.09375 68.953125 34.910156 68.839844 34.816406 C 68.699219 34.746094 68.539062 33.214844 68.472656 31.429688 C 68.332031 28.390625 67.894531 24.957031 67.367188 22.453125 C 67.230469 21.851562 67.023438 20.808594 66.929688 20.132812 C 66.515625 17.699219 65.160156 12.550781 64.445312 10.832031 C 64.285156 10.460938 64.171875 10.066406 64.171875 9.949219 C 64.171875 9.835938 64.078125 9.558594 63.964844 9.324219 C 63.847656 9.117188 62.789062 6.957031 61.617188 4.546875 C 59.59375 0.441406 59.039062 -0.394531 58.671875 0.1875 C 58.488281 0.488281 10.808594 0.535156 10.808594 0.230469 C 10.808594 -0.140625 10.464844 -0.046875 10.050781 0.417969 Z M 59.132812 1.554688 C 59.246094 1.925781 59.984375 3.433594 60.71875 4.941406 C 61.480469 6.449219 62.101562 7.792969 62.101562 7.910156 C 62.101562 8.027344 51.035156 8.117188 34.5 8.117188 C 19.320312 8.117188 6.898438 8.050781 6.898438 7.980469 C 6.898438 7.839844 8.601562 4.871094 9.199219 3.941406 C 9.339844 3.757812 9.5 3.433594 9.589844 3.246094 C 9.660156 3.0625 9.980469 2.457031 10.304688 1.902344 L 10.855469 0.929688 L 58.878906 0.929688 Z M 62.882812 8.488281 C 62.949219 8.675781 62.929688 8.769531 62.789062 8.699219 C 62.652344 8.628906 62.558594 8.464844 62.558594 8.328125 C 62.558594 8.003906 62.722656 8.070312 62.882812 8.488281 Z M 62.675781 10.601562 C 62.421875 13.382812 61.710938 17.511719 61.109375 19.484375 C 60.652344 21.015625 60.214844 23.3125 59.960938 25.445312 L 59.707031 27.601562 L 36.984375 27.648438 C 24.496094 27.695312 13.15625 27.71875 11.800781 27.71875 L 9.316406 27.71875 L 9.0625 25.632812 C 8.785156 23.429688 8.210938 20.621094 7.820312 19.601562 C 7.703125 19.277344 7.589844 18.695312 7.589844 18.324219 C 7.589844 17.953125 7.496094 17.605469 7.382812 17.511719 C 7.269531 17.441406 7.085938 16.792969 7.015625 16.050781 C 6.921875 15.332031 6.785156 14.359375 6.671875 13.917969 C 6.554688 13.476562 6.417969 12.199219 6.324219 11.0625 L 6.164062 9.046875 L 62.835938 9.046875 Z M 63.664062 10.691406 C 63.59375 11.0625 63.640625 11.367188 63.710938 11.367188 C 63.800781 11.367188 63.941406 11.808594 64.03125 12.339844 C 64.125 12.898438 64.332031 13.800781 64.515625 14.382812 C 65.183594 16.585938 65.550781 18.046875 65.550781 18.535156 C 65.550781 18.8125 65.640625 19.230469 65.757812 19.460938 C 65.871094 19.671875 66.078125 20.527344 66.195312 21.363281 C 66.515625 23.40625 66.90625 25.816406 67.183594 27.488281 C 67.296875 28.253906 67.503906 29.96875 67.621094 31.3125 C 67.710938 32.660156 67.871094 33.9375 67.964844 34.144531 C 68.101562 34.46875 68.011719 34.5625 67.527344 34.5625 C 66.859375 34.5625 64.421875 33.679688 64.03125 33.308594 C 63.894531 33.171875 63.527344 32.84375 63.226562 32.566406 C 62.285156 31.753906 61.6875 30.921875 61.15625 29.761719 C 60.71875 28.785156 60.675781 28.390625 60.789062 26.441406 C 60.859375 25.238281 61.019531 23.914062 61.15625 23.542969 C 61.273438 23.148438 61.503906 22.3125 61.640625 21.6875 C 61.777344 21.039062 62.03125 19.902344 62.238281 19.136719 C 63.019531 15.957031 63.320312 13.917969 63.296875 11.875 C 63.273438 10.4375 63.363281 9.789062 63.527344 9.882812 C 63.640625 9.949219 63.710938 10.320312 63.664062 10.691406 Z M 5.679688 12.339844 C 5.65625 14.566406 5.773438 15.238281 7.335938 21.6875 C 8.441406 26.351562 8.554688 28.390625 7.820312 30.015625 C 6.855469 32.148438 4.023438 34.5625 2.507812 34.5625 C 2.253906 34.5625 1.863281 34.679688 1.609375 34.839844 C 0.964844 35.257812 0.804688 34.933594 1.105469 33.890625 C 1.265625 33.402344 1.378906 32.496094 1.378906 31.871094 C 1.378906 30.851562 1.703125 28.4375 2.324219 24.585938 C 2.460938 23.753906 2.644531 22.523438 2.761719 21.851562 C 2.988281 20.414062 3.3125 18.972656 4.070312 16.121094 C 4.945312 12.828125 5.058594 12.339844 5.175781 11.480469 C 5.265625 10.714844 5.449219 10.207031 5.636719 10.207031 C 5.65625 10.207031 5.703125 11.179688 5.679688 12.339844 Z M 5.679688 12.339844 "/>
<path style=" stroke:none;fill-rule:nonzero;fill:rgb(100%,100%,100%);fill-opacity:1;" d="M 40.941406 2.273438 C 40.941406 2.480469 50.601562 2.390625 50.808594 2.179688 C 50.851562 2.132812 48.667969 2.085938 45.929688 2.085938 C 43.195312 2.085938 40.941406 2.179688 40.941406 2.273438 Z M 40.941406 2.273438 "/>
<path style=" stroke:none;fill-rule:nonzero;fill:rgb(100%,100%,100%);fill-opacity:1;" d="M 43.125 3.015625 C 43.21875 3.15625 45.125 3.246094 48.09375 3.246094 C 51.152344 3.246094 52.898438 3.15625 52.898438 3.015625 C 52.898438 2.875 51.082031 2.785156 47.933594 2.785156 C 44.6875 2.785156 43.03125 2.851562 43.125 3.015625 Z M 43.125 3.015625 "/>
<path style=" stroke:none;fill-rule:nonzero;fill:rgb(100%,100%,100%);fill-opacity:1;" d="M 61.15625 10.253906 C 61.132812 10.277344 60.996094 11.367188 60.8125 12.640625 C 60.652344 13.917969 60.445312 15.238281 60.351562 15.585938 C 60.261719 15.957031 60.304688 16.238281 60.445312 16.238281 C 60.8125 16.238281 61.730469 12.0625 61.6875 10.507812 C 61.664062 10.320312 61.203125 10.089844 61.15625 10.253906 Z M 61.15625 10.253906 "/>
<path style=" stroke:none;fill-rule:nonzero;fill:rgb(100%,100%,100%);fill-opacity:1;" d="M 7.359375 11.691406 C 7.359375 12.757812 7.84375 15.773438 8.140625 16.65625 C 8.394531 17.328125 8.488281 17.421875 8.625 17.117188 C 8.71875 16.910156 8.671875 16.375 8.53125 15.957031 C 8.417969 15.542969 8.234375 14.566406 8.164062 13.800781 C 7.957031 11.808594 7.820312 11.132812 7.566406 11.132812 C 7.453125 11.132812 7.359375 11.390625 7.359375 11.691406 Z M 7.359375 11.691406 "/>
<path style=" stroke:none;fill-rule:nonzero;fill:rgb(100%,100%,100%);fill-opacity:1;" d="M 65.710938 27.765625 C 65.597656 27.949219 66.195312 31.824219 66.378906 31.988281 C 66.699219 32.3125 66.722656 31.523438 66.46875 29.691406 C 66.195312 27.789062 65.988281 27.277344 65.710938 27.765625 Z M 65.710938 27.765625 "/>
</g>
</svg>
